<?xml version="1.0" encoding="iso-8859-1"?>
<!-- Generator: Adobe Illustrator 29.3.0, SVG Export Plug-In . SVG Version: 9.03 Build 55982)  -->
<svg version="1.1" id="Layer_1" xmlns="http://www.w3.org/2000/svg" xmlns:xlink="http://www.w3.org/1999/xlink" x="0px" y="0px"
	 viewBox="0 0 658.697 437.33" style="enable-background:new 0 0 658.697 437.33;" xml:space="preserve">
<g>
	<g>
		<defs>
			
				<rect id="SVGID_1_" x="306.855" y="-83.28" transform="matrix(0.9972 -0.075 0.075 0.9972 -6.4319 37.3782)" width="375.214" height="375.214"/>
		</defs>
		<clipPath id="SVGID_00000158747990499047420790000016807454599592678307_">
			<use xlink:href="#SVGID_1_"  style="overflow:visible;"/>
		</clipPath>
		<g style="clip-path:url(#SVGID_00000158747990499047420790000016807454599592678307_);">
			<defs>
				
					<rect id="SVGID_00000070817777747302436160000009486206200261223860_" x="306.855" y="-83.28" transform="matrix(0.9972 -0.075 0.075 0.9972 -6.4319 37.3782)" width="375.214" height="375.214"/>
			</defs>
			<clipPath id="SVGID_00000127010163391068625260000015395466518787708848_">
				<use xlink:href="#SVGID_00000070817777747302436160000009486206200261223860_"  style="overflow:visible;"/>
			</clipPath>
			<g style="clip-path:url(#SVGID_00000127010163391068625260000015395466518787708848_);">
				<defs>
					
						<rect id="SVGID_00000182488989562651577460000012096692747912811164_" x="306.855" y="-83.28" transform="matrix(0.9972 -0.075 0.075 0.9972 -6.4319 37.3782)" width="375.214" height="375.214"/>
				</defs>
				<clipPath id="SVGID_00000155833820928391477590000005634704284695409315_">
					<use xlink:href="#SVGID_00000182488989562651577460000012096692747912811164_"  style="overflow:visible;"/>
				</clipPath>
				<g style="clip-path:url(#SVGID_00000155833820928391477590000005634704284695409315_);">
					<g>
						<defs>
							
								<rect id="SVGID_00000119081077537834076260000006714788823171964063_" x="352.236" y="-25.041" transform="matrix(0.9972 -0.075 0.075 0.9972 -6.764 37.6992)" width="292.667" height="267.903"/>
						</defs>
						<clipPath id="SVGID_00000076578576990717249530000001635676205658081698_">
							<use xlink:href="#SVGID_00000119081077537834076260000006714788823171964063_"  style="overflow:visible;"/>
						</clipPath>
						<g style="clip-path:url(#SVGID_00000076578576990717249530000001635676205658081698_);">
							<defs>
								
									<rect id="SVGID_00000048498589863778151100000011641289294264398742_" x="352.236" y="-25.041" transform="matrix(0.9972 -0.075 0.075 0.9972 -6.764 37.6992)" width="292.667" height="267.903"/>
							</defs>
							<clipPath id="SVGID_00000109731533995790904610000008318487148091466421_">
								<use xlink:href="#SVGID_00000048498589863778151100000011641289294264398742_"  style="overflow:visible;"/>
							</clipPath>
							
								<g transform="matrix(1 7.450581e-09 -7.450581e-09 1 0 0)" style="clip-path:url(#SVGID_00000109731533995790904610000008318487148091466421_);">
								
									<image style="overflow:visible;" width="390" height="357" xlink:href="BEEDCD2E.png"  transform="matrix(0.7483 -0.0563 0.0563 0.7483 342.6016 -13.6892)">
								</image>
							</g>
						</g>
					</g>
				</g>
			</g>
			<g style="clip-path:url(#SVGID_00000127010163391068625260000015395466518787708848_);">
				<defs>
					
						<rect id="SVGID_00000151509530228576203050000000195614774262020993_" x="392.907" y="16.078" transform="matrix(0.9972 -0.075 0.075 0.9972 -6.7678 37.6823)" width="210.871" height="185.748"/>
				</defs>
				<clipPath id="SVGID_00000068662924452905989860000000919457677380692415_">
					<use xlink:href="#SVGID_00000151509530228576203050000000195614774262020993_"  style="overflow:visible;"/>
				</clipPath>
				<g style="clip-path:url(#SVGID_00000068662924452905989860000000919457677380692415_);">
					<defs>
						
							<rect id="SVGID_00000166644660189578199250000001026551024271040916_" x="392.907" y="16.078" transform="matrix(0.9972 -0.075 0.075 0.9972 -6.7678 37.6822)" width="210.87" height="185.747"/>
					</defs>
					<clipPath id="SVGID_00000020401186815788280550000011036028880752612263_">
						<use xlink:href="#SVGID_00000166644660189578199250000001026551024271040916_"  style="overflow:visible;"/>
					</clipPath>
					
						<g transform="matrix(1 0 0 1 3.051758e-05 1.907349e-06)" style="clip-path:url(#SVGID_00000020401186815788280550000011036028880752612263_);">
						
							<image style="overflow:visible;" width="512" height="451" xlink:href="BEEDCD29.png"  transform="matrix(0.4107 -0.0309 0.0309 0.4107 386.2385 24.2473)">
						</image>
					</g>
				</g>
			</g>
			<g style="clip-path:url(#SVGID_00000127010163391068625260000015395466518787708848_);">
				<defs>
					
						<rect id="SVGID_00000081624725822793801800000011715784670105492376_" x="415.786" y="27.521" transform="matrix(0.9972 -0.075 0.075 0.9972 -6.3558 37.6661)" width="165.094" height="151.874"/>
				</defs>
				<clipPath id="SVGID_00000011711827074302516870000009393081496798942599_">
					<use xlink:href="#SVGID_00000081624725822793801800000011715784670105492376_"  style="overflow:visible;"/>
				</clipPath>
				
					<g transform="matrix(1 0 0 1 3.051758e-05 0)" style="clip-path:url(#SVGID_00000011711827074302516870000009393081496798942599_);">
					
						<image style="overflow:visible;" width="512" height="471" xlink:href="BEEDCD28.png"  transform="matrix(0.3215 -0.0242 0.0242 0.3215 410.3237 33.9258)">
					</image>
				</g>
			</g>
		</g>
	</g>
</g>
<g>
	<g>
		<defs>
			
				<rect id="SVGID_00000172399733027001831360000004644696371293295760_" x="221.584" y="107.964" transform="matrix(0.102 -0.9948 0.9948 0.102 67.9535 779.8189)" width="488.617" height="488.617"/>
		</defs>
		<clipPath id="SVGID_00000165939963718772757320000007502986666495917719_">
			<use xlink:href="#SVGID_00000172399733027001831360000004644696371293295760_"  style="overflow:visible;"/>
		</clipPath>
		<g style="clip-path:url(#SVGID_00000165939963718772757320000007502986666495917719_);">
			<defs>
				
					<rect id="SVGID_00000011748234826324734410000016071738037140491954_" x="221.584" y="107.964" transform="matrix(0.102 -0.9948 0.9948 0.102 67.9535 779.8189)" width="488.617" height="488.617"/>
			</defs>
			<clipPath id="SVGID_00000095334831692085253790000007953811441531379112_">
				<use xlink:href="#SVGID_00000011748234826324734410000016071738037140491954_"  style="overflow:visible;"/>
			</clipPath>
			<g style="clip-path:url(#SVGID_00000095334831692085253790000007953811441531379112_);">
				<defs>
					
						<rect id="SVGID_00000023974620687637518660000003504920210893753505_" x="221.584" y="107.964" transform="matrix(0.102 -0.9948 0.9948 0.102 67.9535 779.8189)" width="488.617" height="488.617"/>
				</defs>
				<clipPath id="SVGID_00000045580587668105392880000013162348933865975734_">
					<use xlink:href="#SVGID_00000023974620687637518660000003504920210893753505_"  style="overflow:visible;"/>
				</clipPath>
				<path style="clip-path:url(#SVGID_00000045580587668105392880000013162348933865975734_);fill:#70539E;" d="M458.707,278.279
					c0.314,0.096,0.629,0.185,0.948,0.271C459.36,278.417,459.042,278.324,458.707,278.279"/>
				<path style="clip-path:url(#SVGID_00000045580587668105392880000013162348933865975734_);fill:#9D8EBC;" d="M459.655,278.549
					c-0.319-0.085-0.634-0.174-0.948-0.271C459.042,278.324,459.36,278.417,459.655,278.549"/>
				<g style="clip-path:url(#SVGID_00000045580587668105392880000013162348933865975734_);">
					<g>
						<defs>
							
								<rect id="SVGID_00000078729303423199276660000002138716632890961837_" x="338.918" y="201.594" transform="matrix(0.102 -0.9948 0.9948 0.102 63.6322 773.1277)" width="242.214" height="299.452"/>
						</defs>
						<clipPath id="SVGID_00000092453836197231313720000004434957664226137996_">
							<use xlink:href="#SVGID_00000078729303423199276660000002138716632890961837_"  style="overflow:visible;"/>
						</clipPath>
						<g style="clip-path:url(#SVGID_00000092453836197231313720000004434957664226137996_);">
							<defs>
								
									<rect id="SVGID_00000010299783443896597630000008955431020383197616_" x="338.918" y="201.594" transform="matrix(0.102 -0.9948 0.9948 0.102 63.6322 773.1277)" width="242.214" height="299.452"/>
							</defs>
							<clipPath id="SVGID_00000145026696682246947420000009713479218411964565_">
								<use xlink:href="#SVGID_00000010299783443896597630000008955431020383197616_"  style="overflow:visible;"/>
							</clipPath>
							
								<g transform="matrix(1 -7.450581e-09 7.450581e-09 1 0 0)" style="clip-path:url(#SVGID_00000145026696682246947420000009713479218411964565_);">
								
									<image style="overflow:visible;" width="429" height="347" xlink:href="BEEDCD27.png"  transform="matrix(0.6944 0.0712 -0.0712 0.6944 323.4274 215.5781)">
								</image>
							</g>
						</g>
					</g>
				</g>
			</g>
			<g style="clip-path:url(#SVGID_00000095334831692085253790000007953811441531379112_);">
				<defs>
					
						<rect id="SVGID_00000041281559124737045450000013669061686470700479_" x="376.827" y="239.633" transform="matrix(0.102 -0.9948 0.9948 0.102 63.245 773.3899)" width="166.299" height="224.065"/>
				</defs>
				<clipPath id="SVGID_00000016065284232702117680000015456709180731805070_">
					<use xlink:href="#SVGID_00000041281559124737045450000013669061686470700479_"  style="overflow:visible;"/>
				</clipPath>
				<g style="clip-path:url(#SVGID_00000016065284232702117680000015456709180731805070_);">
					<defs>
						
							<rect id="SVGID_00000148625881973720479120000015204126630275558299_" x="376.827" y="239.633" transform="matrix(0.102 -0.9948 0.9948 0.102 63.2446 773.3901)" width="166.299" height="224.066"/>
					</defs>
					<clipPath id="SVGID_00000025410590349538964020000013918401863872485770_">
						<use xlink:href="#SVGID_00000148625881973720479120000015204126630275558299_"  style="overflow:visible;"/>
					</clipPath>
					<g transform="matrix(1 0 0 1 0 0)" style="clip-path:url(#SVGID_00000025410590349538964020000013918401863872485770_);">
						
							<image style="overflow:visible;" width="512" height="380" xlink:href="BEEDCD36.png"  transform="matrix(0.4353 0.0446 -0.0446 0.4353 357.0057 257.5271)">
						</image>
					</g>
				</g>
			</g>
			<g style="clip-path:url(#SVGID_00000095334831692085253790000007953811441531379112_);">
				<defs>
					
						<rect id="SVGID_00000047775420809215426290000001667320142030607263_" x="400.232" y="271.936" transform="matrix(0.102 -0.9948 0.9948 0.102 55.995 774.8207)" width="113.824" height="168.922"/>
				</defs>
				<clipPath id="SVGID_00000073721316220016884270000016020570422173520819_">
					<use xlink:href="#SVGID_00000047775420809215426290000001667320142030607263_"  style="overflow:visible;"/>
				</clipPath>
				
					<g transform="matrix(1 0 0 1 3.051758e-05 0)" style="clip-path:url(#SVGID_00000073721316220016884270000016020570422173520819_);">
					
						<image style="overflow:visible;" width="512" height="345" xlink:href="BEEDCD39.png"  transform="matrix(0.3282 0.0336 -0.0336 0.3282 378.9264 291.1694)">
					</image>
				</g>
			</g>
		</g>
	</g>
</g>
<rect x="1344.706" y="-307.31" style="fill:#2D2F84;" width="83.556" height="83.556"/>
<rect x="1432.484" y="-307.31" style="fill:#AAD037;" width="83.556" height="83.556"/>
<rect x="1344.706" y="-220.198" style="fill:#C2B2D7;" width="83.556" height="83.556"/>
<rect x="1432.484" y="-220.198" style="fill:#FFFFFF;" width="83.556" height="83.556"/>
<g>
	<g>
		<defs>
			
				<rect id="SVGID_00000168812782832261446320000012487708127550930350_" x="-143.516" y="-114.377" transform="matrix(0.989 -0.1482 0.1482 0.989 -22.8383 21.8236)" width="557.037" height="557.037"/>
		</defs>
		<clipPath id="SVGID_00000146489510362045402410000000392046445150103708_">
			<use xlink:href="#SVGID_00000168812782832261446320000012487708127550930350_"  style="overflow:visible;"/>
		</clipPath>
		<g style="clip-path:url(#SVGID_00000146489510362045402410000000392046445150103708_);">
			<defs>
				
					<rect id="SVGID_00000120524379492793217760000001430823538365105323_" x="-143.516" y="-114.377" transform="matrix(0.989 -0.1482 0.1482 0.989 -22.8383 21.8236)" width="557.037" height="557.037"/>
			</defs>
			<clipPath id="SVGID_00000023963411404831043560000012579464382625273242_">
				<use xlink:href="#SVGID_00000120524379492793217760000001430823538365105323_"  style="overflow:visible;"/>
			</clipPath>
			<g style="clip-path:url(#SVGID_00000023963411404831043560000012579464382625273242_);">
				<defs>
					
						<rect id="SVGID_00000034781420030077940010000009870886379977328545_" x="-8.433" y="15.339" transform="matrix(0.989 -0.1482 0.1482 0.989 -22.8989 21.8195)" width="286.756" height="298.413"/>
				</defs>
				<clipPath id="SVGID_00000088847481416241625770000016629924991174524296_">
					<use xlink:href="#SVGID_00000034781420030077940010000009870886379977328545_"  style="overflow:visible;"/>
				</clipPath>
				<g style="clip-path:url(#SVGID_00000088847481416241625770000016629924991174524296_);">
					<defs>
						
							<rect id="SVGID_00000131342878413998890120000000222578549397105075_" x="-8.433" y="15.339" transform="matrix(0.989 -0.1482 0.1482 0.989 -22.8989 21.8195)" width="286.756" height="298.413"/>
					</defs>
					<clipPath id="SVGID_00000181765507828016802260000005072917698224002972_">
						<use xlink:href="#SVGID_00000131342878413998890120000000222578549397105075_"  style="overflow:visible;"/>
					</clipPath>
					
						<g transform="matrix(1 1.490116e-08 -1.490116e-08 1 -1.907349e-06 0)" style="clip-path:url(#SVGID_00000181765507828016802260000005072917698224002972_);">
						
							<image style="overflow:visible;" width="492" height="512" xlink:href="BEEDCD38.png"  transform="matrix(0.5764 -0.0864 0.0864 0.5764 -28.9654 38.2393)">
						</image>
					</g>
				</g>
			</g>
			<g style="clip-path:url(#SVGID_00000023963411404831043560000012579464382625273242_);">
				<defs>
					
						<rect id="SVGID_00000063594136585995954860000002981982360148967833_" x="21.069" y="147.371" transform="matrix(0.989 -0.1482 0.1482 0.989 -27.342 11.4047)" width="83.556" height="83.555"/>
				</defs>
				<clipPath id="SVGID_00000049224001451930448030000004271971214477350327_">
					<use xlink:href="#SVGID_00000063594136585995954860000002981982360148967833_"  style="overflow:visible;"/>
				</clipPath>
				<g style="clip-path:url(#SVGID_00000049224001451930448030000004271971214477350327_);">
					<defs>
						
							<rect id="SVGID_00000044856351365777878440000017286316613727015870_" x="21.069" y="147.371" transform="matrix(0.989 -0.1482 0.1482 0.989 -27.342 11.4047)" width="83.556" height="83.556"/>
					</defs>
					<clipPath id="SVGID_00000016045354146817571020000001507861311562595474_">
						<use xlink:href="#SVGID_00000044856351365777878440000017286316613727015870_"  style="overflow:visible;"/>
					</clipPath>
					<g transform="matrix(1 0 0 1 0 0)" style="clip-path:url(#SVGID_00000016045354146817571020000001507861311562595474_);">
						
							<image style="overflow:visible;" width="512" height="512" xlink:href="BEEDCD3F.png"  transform="matrix(0.1614 -0.0242 0.0242 0.1614 15.3381 154.0246)">
						</image>
					</g>
				</g>
			</g>
			<g style="clip-path:url(#SVGID_00000023963411404831043560000012579464382625273242_);">
				<defs>
					
						<rect id="SVGID_00000174597966995460427090000016498394221119960708_" x="-143.516" y="-114.377" transform="matrix(0.989 -0.1482 0.1482 0.989 -22.8383 21.8236)" width="557.037" height="557.037"/>
				</defs>
				<clipPath id="SVGID_00000061455631917229384920000017729691172878065334_">
					<use xlink:href="#SVGID_00000174597966995460427090000016498394221119960708_"  style="overflow:visible;"/>
				</clipPath>
				<path style="clip-path:url(#SVGID_00000061455631917229384920000017729691172878065334_);fill:#70539E;" d="M106.125,84.461
					c0.374,0.017,0.747,0.026,1.124,0.03C106.884,84.43,106.507,84.417,106.125,84.461"/>
				<path style="clip-path:url(#SVGID_00000061455631917229384920000017729691172878065334_);fill:#9D8EBC;" d="M107.248,84.492
					c-0.376-0.004-0.75-0.013-1.124-0.03C106.507,84.417,106.885,84.43,107.248,84.492"/>
			</g>
		</g>
	</g>
</g>
<g>
	<g>
		<defs>
			
				<rect id="SVGID_00000012474086832330367790000000881732668134279841_" x="112.781" y="-44.125" transform="matrix(0.2142 -0.9768 0.9768 0.2142 81.7666 536.5731)" width="523.185" height="523.185"/>
		</defs>
		<clipPath id="SVGID_00000005249164259861900190000003429125995976466069_">
			<use xlink:href="#SVGID_00000012474086832330367790000000881732668134279841_"  style="overflow:visible;"/>
		</clipPath>
		<g style="clip-path:url(#SVGID_00000005249164259861900190000003429125995976466069_);">
			<defs>
				
					<rect id="SVGID_00000106127445822066774030000017974524729478769586_" x="112.781" y="-44.125" transform="matrix(0.2142 -0.9768 0.9768 0.2142 81.7666 536.5731)" width="523.185" height="523.185"/>
			</defs>
			<clipPath id="SVGID_00000007396337022480030670000003038234062334965397_">
				<use xlink:href="#SVGID_00000106127445822066774030000017974524729478769586_"  style="overflow:visible;"/>
			</clipPath>
			<g style="clip-path:url(#SVGID_00000007396337022480030670000003038234062334965397_);">
				<defs>
					
						<rect id="SVGID_00000003072774394724562150000014802922288796227000_" x="112.781" y="-44.125" transform="matrix(0.2142 -0.9768 0.9768 0.2142 81.7666 536.5731)" width="523.185" height="523.185"/>
				</defs>
				<clipPath id="SVGID_00000057836501610015775210000016276641562063370165_">
					<use xlink:href="#SVGID_00000003072774394724562150000014802922288796227000_"  style="overflow:visible;"/>
				</clipPath>
				<path style="clip-path:url(#SVGID_00000057836501610015775210000016276641562063370165_);fill:#70539E;" d="M375.721,137.878
					c0.323,0.14,0.647,0.274,0.976,0.403C376.398,138.104,376.071,137.967,375.721,137.878"/>
				<path style="clip-path:url(#SVGID_00000057836501610015775210000016276641562063370165_);fill:#9D8EBC;" d="M376.696,138.281
					c-0.329-0.13-0.653-0.263-0.976-0.403C376.071,137.967,376.398,138.104,376.696,138.281"/>
			</g>
			<g style="clip-path:url(#SVGID_00000007396337022480030670000003038234062334965397_);">
				<defs>
					
						<rect id="SVGID_00000152962872621908917890000007073792271055190683_" x="246.203" y="106.561" transform="matrix(0.2142 -0.9768 0.9768 0.2142 68.0581 526.5735)" width="230.201" height="228.853"/>
				</defs>
				<clipPath id="SVGID_00000169529832340075135850000017951911037622632873_">
					<use xlink:href="#SVGID_00000152962872621908917890000007073792271055190683_"  style="overflow:visible;"/>
				</clipPath>
				<g style="clip-path:url(#SVGID_00000169529832340075135850000017951911037622632873_);">
					
						<image style="overflow:visible;" width="509" height="512" xlink:href="BEEDCD3E.png"  transform="matrix(0.4392 0.0963 -0.0963 0.4392 274.1864 84.0492)">
					</image>
				</g>
			</g>
			<g style="clip-path:url(#SVGID_00000007396337022480030670000003038234062334965397_);">
				<defs>
					
						<rect id="SVGID_00000179624578028801865400000000322186558999532725_" x="249.352" y="123.584" transform="matrix(0.2142 -0.9768 0.9768 0.2142 96.2159 490.9492)" width="207.779" height="124.181"/>
				</defs>
				<clipPath id="SVGID_00000090981630102141952530000004152869889832459711_">
					<use xlink:href="#SVGID_00000179624578028801865400000000322186558999532725_"  style="overflow:visible;"/>
				</clipPath>
				
					<g transform="matrix(1 0 0 1 3.051758e-05 0)" style="clip-path:url(#SVGID_00000090981630102141952530000004152869889832459711_);">
					
						<image style="overflow:visible;" width="306" height="512" xlink:href="985EA787.png"  transform="matrix(0.3964 0.0869 -0.0869 0.3964 314.8443 70.8971)">
					</image>
				</g>
			</g>
		</g>
	</g>
</g>
<path style="fill:none;stroke:#000000;stroke-miterlimit:10;" d="M-894.711-130.882l-0.09,0.06c0.02-0.02,0.05-0.04,0.07-0.06
	H-894.711z"/>
<path style="fill:none;stroke:#000000;stroke-miterlimit:10;" d="M-894.711-130.882l-0.09,0.06c0.02-0.02,0.05-0.04,0.07-0.06
	H-894.711z"/>
<path style="fill:none;stroke:#000000;stroke-miterlimit:10;" d="M-894.711-130.882l-0.09,0.06c0.02-0.02,0.05-0.04,0.07-0.06
	H-894.711z"/>
<g>
	<g>
		<defs>
			
				<rect id="SVGID_00000121277346322071799550000015173966245740978572_" x="207.96" y="-80.112" transform="matrix(0.3645 -0.9312 0.9312 0.3645 172.6346 323.4516)" width="230.698" height="230.698"/>
		</defs>
		<clipPath id="SVGID_00000090994841040722337310000008790524566733678251_">
			<use xlink:href="#SVGID_00000121277346322071799550000015173966245740978572_"  style="overflow:visible;"/>
		</clipPath>
		<g style="clip-path:url(#SVGID_00000090994841040722337310000008790524566733678251_);">
			<defs>
				
					<rect id="SVGID_00000165924196894792887170000005783694163278161827_" x="207.96" y="-80.112" transform="matrix(0.3645 -0.9312 0.9312 0.3645 172.6346 323.4516)" width="230.698" height="230.698"/>
			</defs>
			<clipPath id="SVGID_00000110460505932283297870000010374862085244362910_">
				<use xlink:href="#SVGID_00000165924196894792887170000005783694163278161827_"  style="overflow:visible;"/>
			</clipPath>
			<g style="clip-path:url(#SVGID_00000110460505932283297870000010374862085244362910_);">
				<defs>
					
						<rect id="SVGID_00000121966027235171068400000001873189640775811248_" x="207.96" y="-80.112" transform="matrix(0.3645 -0.9312 0.9312 0.3645 172.6346 323.4516)" width="230.698" height="230.698"/>
				</defs>
				<clipPath id="SVGID_00000067934698023751481950000016301389925925643938_">
					<use xlink:href="#SVGID_00000121966027235171068400000001873189640775811248_"  style="overflow:visible;"/>
				</clipPath>
				<path style="clip-path:url(#SVGID_00000067934698023751481950000016301389925925643938_);fill:#70539E;" d="M329.393,0.668
					c0.131,0.083,0.263,0.164,0.397,0.243C329.672,0.814,329.539,0.731,329.393,0.668"/>
				<path style="clip-path:url(#SVGID_00000067934698023751481950000016301389925925643938_);fill:#9D8EBC;" d="M329.79,0.911
					c-0.134-0.079-0.266-0.159-0.397-0.243C329.539,0.732,329.672,0.814,329.79,0.911"/>
			</g>
			<g style="clip-path:url(#SVGID_00000110460505932283297870000010374862085244362910_);">
				<defs>
					
						<rect id="SVGID_00000122687886716912749980000012727103697752396723_" x="271.676" y="-21.049" transform="matrix(0.3645 -0.9312 0.9312 0.3645 163.8532 317.9743)" width="86.458" height="119.963"/>
				</defs>
				<clipPath id="SVGID_00000024719408735285518010000007711771273090980256_">
					<use xlink:href="#SVGID_00000122687886716912749980000012727103697752396723_"  style="overflow:visible;"/>
				</clipPath>
				<g style="clip-path:url(#SVGID_00000024719408735285518010000007711771273090980256_);">
					<defs>
						
							<rect id="SVGID_00000141425424339339545530000013643560167563503772_" x="271.676" y="-21.049" transform="matrix(0.3645 -0.9312 0.9312 0.3645 163.8535 317.9744)" width="86.458" height="119.963"/>
					</defs>
					<clipPath id="SVGID_00000052790245198331762450000012696164662600090283_">
						<use xlink:href="#SVGID_00000141425424339339545530000013643560167563503772_"  style="overflow:visible;"/>
					</clipPath>
					
						<g transform="matrix(1 0 0 1 0 -5.722046e-06)" style="clip-path:url(#SVGID_00000052790245198331762450000012696164662600090283_);">
						
							<image style="overflow:visible;" width="512" height="369" xlink:href="985EA783.png"  transform="matrix(0.2182 0.0854 -0.0854 0.2182 274.8103 -23.1878)">
						</image>
					</g>
				</g>
			</g>
		</g>
	</g>
</g>
<g>
	<g>
		<defs>
			
				<rect id="SVGID_00000090289196079503911810000002314789147472201609_" x="37.114" y="156.246" width="410.556" height="410.556"/>
		</defs>
		<clipPath id="SVGID_00000125571662566235680030000017860919329470336399_">
			<use xlink:href="#SVGID_00000090289196079503911810000002314789147472201609_"  style="overflow:visible;"/>
		</clipPath>
		<g style="clip-path:url(#SVGID_00000125571662566235680030000017860919329470336399_);">
			<defs>
				
					<rect id="SVGID_00000022559095381517738850000016548982486052759732_" x="37.114" y="156.246" width="410.556" height="410.556"/>
			</defs>
			<clipPath id="SVGID_00000125601162059056239380000002448179823396031634_">
				<use xlink:href="#SVGID_00000022559095381517738850000016548982486052759732_"  style="overflow:visible;"/>
			</clipPath>
			<g style="clip-path:url(#SVGID_00000125601162059056239380000002448179823396031634_);">
				<defs>
					
						<rect id="SVGID_00000042733642539989024650000000337366778354533293_" x="37.114" y="156.246" width="410.556" height="410.556"/>
				</defs>
				<clipPath id="SVGID_00000079464428625537882920000016909715100838047626_">
					<use xlink:href="#SVGID_00000042733642539989024650000000337366778354533293_"  style="overflow:visible;"/>
				</clipPath>
				<path style="clip-path:url(#SVGID_00000079464428625537882920000016909715100838047626_);fill:#70539E;" d="M230.047,300.291
					c0.271,0.053,0.542,0.101,0.816,0.145C230.604,300.351,230.33,300.3,230.047,300.291"/>
				<path style="clip-path:url(#SVGID_00000079464428625537882920000016909715100838047626_);fill:#9D8EBC;" d="M230.863,300.436
					c-0.274-0.044-0.545-0.091-0.816-0.145C230.331,300.3,230.605,300.351,230.863,300.436"/>
			</g>
			<g style="clip-path:url(#SVGID_00000125601162059056239380000002448179823396031634_);">
				<defs>
					
						<rect id="SVGID_00000070814668768751545420000003278965871260767152_" x="154.91" y="285.719" width="151.906" height="151.609"/>
				</defs>
				<clipPath id="SVGID_00000074424637562190276500000017360395991194619324_">
					<use xlink:href="#SVGID_00000070814668768751545420000003278965871260767152_"  style="overflow:visible;"/>
				</clipPath>
				<g style="clip-path:url(#SVGID_00000074424637562190276500000017360395991194619324_);">
					
						<image style="overflow:visible;" width="512" height="511" xlink:href="985EA79E.png"  transform="matrix(0.2967 0 0 0.2967 154.91 285.7193)">
					</image>
				</g>
			</g>
		</g>
	</g>
</g>
<g>
	<g>
		<defs>
			
				<rect id="SVGID_00000006665522822254430650000009222004097407124634_" x="494.462" y="136.016" width="225.508" height="225.508"/>
		</defs>
		<clipPath id="SVGID_00000164507957225624549330000009381960915601162912_">
			<use xlink:href="#SVGID_00000006665522822254430650000009222004097407124634_"  style="overflow:visible;"/>
		</clipPath>
		<g style="clip-path:url(#SVGID_00000164507957225624549330000009381960915601162912_);">
			<defs>
				
					<rect id="SVGID_00000077294857886233967860000011975368839943492236_" x="494.462" y="136.016" width="225.508" height="225.508"/>
			</defs>
			<clipPath id="SVGID_00000139290435590361876900000012672988339175532180_">
				<use xlink:href="#SVGID_00000077294857886233967860000011975368839943492236_"  style="overflow:visible;"/>
			</clipPath>
			<g style="clip-path:url(#SVGID_00000139290435590361876900000012672988339175532180_);">
				<defs>
					
						<rect id="SVGID_00000071539282280829729120000001341312220548095917_" x="494.462" y="136.016" width="225.508" height="225.508"/>
				</defs>
				<clipPath id="SVGID_00000118370549742020266430000012211455424674598537_">
					<use xlink:href="#SVGID_00000071539282280829729120000001341312220548095917_"  style="overflow:visible;"/>
				</clipPath>
				<path style="clip-path:url(#SVGID_00000118370549742020266430000012211455424674598537_);fill:#70539E;" d="M600.435,215.136
					c0.149,0.029,0.298,0.055,0.448,0.08C600.741,215.169,600.591,215.141,600.435,215.136"/>
				<path style="clip-path:url(#SVGID_00000118370549742020266430000012211455424674598537_);fill:#9D8EBC;" d="M600.883,215.215
					c-0.15-0.024-0.299-0.05-0.448-0.08C600.591,215.141,600.742,215.169,600.883,215.215"/>
				
					<path style="clip-path:url(#SVGID_00000118370549742020266430000012211455424674598537_);fill:none;stroke:#000000;stroke-width:0.0032;stroke-miterlimit:10;" d="
					M606.897,286.217c14.506-7.81,29.012-15.619,43.519-23.429c2.659-1.432,8.903-3.105,7.024-6.914
					c-1.97-3.994-6.315-7.819-9.126-11.291c-6.272-7.746-12.544-15.491-18.816-23.236c-3.136-3.873-6.272-7.746-9.408-11.618
					c-2.024-2.499-4.714-7.732-7.886-8.814c-3.031-1.034-8.005,3.037-10.631,4.451c-3.627,1.952-7.253,3.905-10.88,5.857
					c-7.253,3.905-14.506,7.81-21.759,11.715c-2.301,1.239-9.301,3.575-10.18,6.078c-1.017,2.897,5.538,8.621,7.211,10.687
					c6.272,7.746,12.544,15.491,18.816,23.236c3.136,3.873,6.272,7.745,9.408,11.618c2.725,3.366,5.487,8.28,8.909,10.919
					C604.196,286.324,605.538,286.853,606.897,286.217z"/>
				
					<path style="clip-path:url(#SVGID_00000118370549742020266430000012211455424674598537_);fill:none;stroke:#000000;stroke-width:0.0032;stroke-miterlimit:10;" d="
					M601.666,294.552c-3.479,2.403-6.37-2.867-8.079-4.978c-3.136-3.873-6.272-7.746-9.408-11.618
					c-6.272-7.746-12.544-15.491-18.816-23.236c-3.136-3.873-6.272-7.745-9.408-11.618c-0.992-1.225-3.338-3.175-3.073-4.98
					c0.268-1.83,2.859-2.564,4.292-3.336c7.253-3.905,14.506-7.81,21.759-11.715c7.253-3.905,14.506-7.81,21.759-11.715
					c3.721-2.003,5.596-2.803,8.447,0.609c3.194,3.822,6.273,7.747,9.408,11.618c6.272,7.746,12.544,15.491,18.816,23.236
					c3.136,3.873,6.272,7.745,9.408,11.618c2.092,2.584,7.668,6.907,3.853,9.756c-3.176,2.371-7.384,3.975-10.88,5.857
					c-3.626,1.953-7.253,3.905-10.879,5.857c-7.253,3.905-14.506,7.81-21.759,11.715
					C605.293,292.599,603.48,293.576,601.666,294.552z"/>
				
					<path style="clip-path:url(#SVGID_00000118370549742020266430000012211455424674598537_);fill:none;stroke:#000000;stroke-width:0.0032;stroke-miterlimit:10;" d="
					M607.441,285.924c-3.479,2.403-6.37-2.867-8.079-4.978c-3.136-3.873-6.272-7.746-9.408-11.618
					c-6.272-7.746-12.544-15.491-18.816-23.236c-3.136-3.873-6.272-7.745-9.408-11.618c-0.992-1.225-3.338-3.175-3.073-4.98
					c0.268-1.83,2.859-2.564,4.292-3.336c7.253-3.905,14.506-7.81,21.759-11.715c7.253-3.905,14.506-7.81,21.759-11.715
					c3.721-2.003,5.596-2.803,8.447,0.609c3.194,3.822,6.273,7.747,9.408,11.618c6.272,7.746,12.544,15.491,18.816,23.236
					c3.136,3.873,6.272,7.745,9.408,11.618c2.092,2.584,7.668,6.907,3.853,9.756c-3.176,2.371-7.384,3.975-10.88,5.857
					c-3.627,1.953-7.253,3.905-10.88,5.857c-7.253,3.905-14.506,7.81-21.759,11.715
					C611.067,283.972,609.254,284.948,607.441,285.924z"/>
				
					<path style="clip-path:url(#SVGID_00000118370549742020266430000012211455424674598537_);fill:none;stroke:#000000;stroke-width:0.0032;stroke-miterlimit:10;" d="
					M601.122,294.845c14.506-7.81,29.012-15.619,43.519-23.429c2.659-1.432,8.903-3.105,7.024-6.914
					c-1.97-3.994-6.315-7.819-9.126-11.291c-6.272-7.746-12.544-15.491-18.816-23.236c-3.136-3.873-6.272-7.746-9.408-11.618
					c-2.024-2.499-4.714-7.732-7.886-8.814c-3.031-1.034-8.005,3.037-10.631,4.451c-3.627,1.953-7.253,3.905-10.88,5.857
					c-7.253,3.905-14.506,7.81-21.759,11.715c-2.301,1.239-9.301,3.575-10.18,6.078c-1.017,2.897,5.538,8.622,7.211,10.687
					c6.272,7.746,12.544,15.491,18.816,23.236c3.136,3.873,6.272,7.745,9.408,11.618c2.725,3.366,5.487,8.28,8.909,10.919
					C598.422,294.952,599.763,295.48,601.122,294.845z"/>
				
					<path style="clip-path:url(#SVGID_00000118370549742020266430000012211455424674598537_);fill:none;stroke:#000000;stroke-width:0.0032;stroke-miterlimit:10;" d="
					M571.837,225.812c0.723-6.105,10.328-10.225,15.062-12.908c5.335-3.023,10.755-5.922,16.408-8.314
					c3.509-1.485,7.457-3.09,11.334-2.355c4.029,0.765,7.315,4.123,10.077,6.938c5.915,6.028,11.244,12.708,16.448,19.35
					c3.773,4.815,13.738,14.774,11.705,21.542c-1.694,5.637-10.677,9.504-15.426,12.19c-5.385,3.045-10.942,6.008-16.688,8.317
					c-3.513,1.412-7.619,2.925-11.416,1.758c-4.155-1.276-7.417-4.943-10.303-8.005c-4.643-4.926-8.952-10.184-13.175-15.47
					c-4.366-5.465-9.25-11.114-12.441-17.374C572.534,229.742,571.725,227.803,571.837,225.812z"/>
				
					<path style="clip-path:url(#SVGID_00000118370549742020266430000012211455424674598537_);fill:none;stroke:#000000;stroke-width:0.0032;stroke-miterlimit:10;" d="
					M570.466,222.03c4.299-4.426,10.893-7.281,16.246-10.218c5.643-3.096,11.314-6.169,17.189-8.803
					c3.257-1.46,7.141-3.474,10.813-2.739c4.291,0.859,7.779,5.396,10.546,8.485c5.254,5.867,10.216,12.012,15.14,18.156
					c2.722,3.396,5.425,6.81,8.047,10.284c2.72,3.604,7.323,8.472,7.324,13.253c-0.137,0.511-0.284,1.021-0.44,1.526
					c-3.41,5.199-10.869,8.348-16.154,11.285c-5.562,3.09-11.19,6.108-16.94,8.832c-2.869,1.359-5.933,2.949-9.073,3.567
					c-4.869,0.958-8.172-1.969-11.383-5.26c-6.182-6.337-11.727-13.354-17.27-20.248c-3.191-3.968-6.355-7.961-9.393-12.048
					c-2.622-3.526-6.865-8.082-6.775-12.743c0.176-0.509,0.356-1.018,0.539-1.525C569.347,223.18,569.883,222.568,570.466,222.03z"
					/>
				
					<path style="clip-path:url(#SVGID_00000118370549742020266430000012211455424674598537_);fill:none;stroke:#000000;stroke-width:0.0032;stroke-miterlimit:10;" d="
					M566.226,226.236c0.049-0.508,0.127-1.015,0.231-1.513c0.353-0.493,0.702-0.988,1.047-1.486
					c4.761-4.125,10.59-7.039,16.09-10.07c6.405-3.529,12.843-7.066,19.44-10.222c3.44-1.646,7.005-3.506,10.883-3.63
					c4.309,0.7,7.527,5.199,10.229,8.255c2.827,3.196,5.534,6.5,8.245,9.794c5.761,7.001,11.493,14.04,17.025,21.225
					c2.726,3.54,6.729,7.724,7.602,12.226c0.003,0.506-0.041,1.014-0.13,1.511c-0.306,0.502-0.618,1-0.934,1.495
					c-4.779,4.408-10.982,7.331-16.64,10.462c-6.508,3.601-13.07,7.15-19.78,10.353c-2.895,1.382-6.699,3.621-10.022,3.333
					c-4.26-0.37-7.756-5.341-10.348-8.271c-5.769-6.522-11.233-13.329-16.685-20.116c-3.029-3.771-6.047-7.554-8.976-11.403
					C571.019,234.915,566.61,230.492,566.226,226.236z"/>
				
					<path style="clip-path:url(#SVGID_00000118370549742020266430000012211455424674598537_);fill:none;stroke:#000000;stroke-width:0.0032;stroke-miterlimit:10;" d="
					M564.7,225.529c0.274-0.504,0.57-0.998,0.886-1.477c10.448-7.788,22.7-13.601,34.29-19.588
					c4.064-2.099,8.075-3.924,12.373-5.445c0.664-0.017,1.33-0.022,1.994-0.014c4.091,1.29,7.141,5.833,9.808,8.964
					c2.897,3.402,5.734,6.856,8.565,10.314c5.555,6.787,11.073,13.608,16.488,20.507c2.981,3.797,6.932,7.87,8.55,12.481
					c0.047,0.496,0.096,0.992,0.148,1.488c-0.239,0.504-0.497,1.002-0.769,1.489c-9.893,8.107-22.71,13.749-34.086,19.609
					c-4.138,2.131-8.242,3.963-12.581,5.599c-0.666,0.038-1.334,0.057-2.002,0.055c-4.431-1.224-7.764-6.346-10.608-9.689
					c-2.868-3.371-5.662-6.806-8.461-10.235c-5.343-6.545-10.659-13.113-15.889-19.749c-2.951-3.745-7.394-8.145-8.689-12.813
					C564.714,226.527,564.708,226.028,564.7,225.529z"/>
				
					<path style="clip-path:url(#SVGID_00000118370549742020266430000012211455424674598537_);fill:none;stroke:#000000;stroke-width:0.0032;stroke-miterlimit:10;" d="
					M563.306,226.289c0.221-0.498,0.465-0.991,0.727-1.47c10.642-8.001,23.515-13.845,35.338-20.001
					c4.304-2.241,8.517-4.327,13.071-5.968c0.636,0.027,1.273,0.069,1.908,0.126c4.034,1.674,7.249,6.783,9.986,10.043
					c2.797,3.332,5.551,6.701,8.301,10.072c5.437,6.665,10.857,13.345,16.189,20.094c3.175,4.019,6.754,8.046,9.13,12.598
					c0.145,0.48,0.268,0.97,0.369,1.46c-0.181,0.498-0.375,0.993-0.581,1.48c-0.541,0.416-1.047,0.871-1.52,1.363
					c-11.424,6.342-22.705,12.978-34.319,19.046c-4.134,2.16-8.252,4.053-12.578,5.743c-0.639-0.007-1.28-0.03-1.917-0.069
					c-4.11-1.765-7.204-6.585-10.007-9.932c-2.813-3.359-5.587-6.75-8.357-10.145c-5.582-6.842-11.141-13.705-16.618-20.632
					c-3.076-3.891-6.716-7.834-8.852-12.337C563.49,227.268,563.4,226.778,563.306,226.289z"/>
				
					<path style="clip-path:url(#SVGID_00000118370549742020266430000012211455424674598537_);fill:none;stroke:#000000;stroke-width:0.0032;stroke-miterlimit:10;" d="
					M564.293,224.251c6.327-3.05,12.382-7.104,18.601-10.452c5.803-3.124,11.604-6.253,17.434-9.321
					c4.007-2.109,7.949-4.08,12.18-5.632c0.604,0.048,1.204,0.148,1.792,0.299c3.837,1.925,6.754,6.708,9.437,9.961
					c2.828,3.429,5.637,6.874,8.441,10.323c5.671,6.975,11.327,13.963,16.941,20.984c3.079,3.851,6.457,7.663,8.988,11.908
					c0.148,0.48,0.299,0.96,0.451,1.439c-0.061,0.502-0.182,0.995-0.36,1.465c-0.514,0.412-1,0.854-1.459,1.327
					c-11.636,5.92-22.939,12.857-34.504,19.01c-3.844,2.045-7.943,3.748-11.705,5.898c-0.716,0.173-1.419,0.389-2.109,0.649
					c-0.608-0.038-1.216-0.106-1.819-0.203c-3.675-1.67-6.666-6.553-9.191-9.587c-2.863-3.439-5.693-6.905-8.515-10.378
					c-5.735-7.058-11.473-14.115-17.135-21.231c-3.146-3.954-6.611-7.881-9.164-12.253c-0.192-0.465-0.326-0.947-0.402-1.445
					c0.128-0.5,0.303-0.989,0.521-1.455C563.284,225.175,563.81,224.738,564.293,224.251z"/>
				
					<path style="clip-path:url(#SVGID_00000118370549742020266430000012211455424674598537_);fill:none;stroke:#000000;stroke-width:0.0032;stroke-miterlimit:10;" d="
					M561.936,225.969l0.217-0.105c4.765-4.61,12.852-7.546,18.672-10.689c6.96-3.759,13.92-7.522,20.923-11.196
					c3.357-1.761,6.975-4.236,10.719-4.967c0.581,0.077,1.158,0.207,1.715,0.387c3.726,2.51,6.591,7.04,9.426,10.485
					c2.932,3.563,5.841,7.145,8.75,10.726c5.661,6.97,11.315,13.947,16.923,20.96c3.059,3.825,7.637,8.116,9.384,12.729
					c0.016,0.481-0.05,0.968-0.193,1.432c-0.449,0.447-0.909,0.883-1.379,1.307c-12.244,6.006-24.122,13.312-36.175,19.78
					c-3.711,1.991-7.67,3.677-11.285,5.797c-0.674,0.193-1.347,0.392-2.018,0.596c-0.584-0.036-1.155-0.149-1.709-0.336
					c-3.734-2.398-6.579-6.91-9.375-10.313c-2.842-3.459-5.668-6.932-8.491-10.408c-5.63-6.931-11.254-13.869-16.838-20.839
					c-3.206-4.003-6.496-7.97-9.398-12.197c-0.167-0.472-0.345-0.941-0.532-1.406c0.034-0.492,0.15-0.969,0.345-1.424
					L561.936,225.969z"/>
				
					<path style="clip-path:url(#SVGID_00000118370549742020266430000012211455424674598537_);fill:none;stroke:#000000;stroke-width:0.0032;stroke-miterlimit:10;" d="
					M560.602,227.006c0.248-0.253,0.499-0.504,0.752-0.753l0.516-0.25l0.347-0.325l0.272-0.097
					c5.906-3.968,12.634-7.068,18.907-10.431c6.766-3.627,13.517-7.288,20.297-10.888c3.088-1.639,7.164-4.756,10.681-5.003
					c0.533,0.146,1.063,0.322,1.58,0.523c3.571,2.497,6.298,6.972,9.04,10.331c2.885,3.535,5.761,7.078,8.636,10.622
					c5.762,7.104,11.518,14.213,17.255,21.338c3.113,3.866,7.846,8.167,9.704,12.795c0.024,0.456,0.047,0.911,0.071,1.367
					c-0.451,0.43-0.898,0.863-1.343,1.299c-13.041,6.152-25.586,14.064-38.364,20.851c-3.348,1.778-6.971,3.318-10.181,5.298
					c-0.642,0.216-1.317,0.403-1.973,0.543c-0.513-0.148-1.025-0.299-1.537-0.454c-3.274-2.093-5.797-6.308-8.239-9.294
					c-3.155-3.86-6.287-7.738-9.427-11.61c-6.333-7.811-12.666-15.622-18.972-23.455c-2.541-3.155-7.012-7.094-8.166-11.021
					c0.046-0.458,0.093-0.917,0.141-1.376C560.597,227.013,560.599,227.009,560.602,227.006z"/>
				
					<path style="clip-path:url(#SVGID_00000118370549742020266430000012211455424674598537_);fill:none;stroke:#000000;stroke-width:0.0032;stroke-miterlimit:10;" d="
					M560.101,227.467c0.527-0.634,1.213-1.137,1.996-1.4c12.769-8.229,27.043-14.792,40.458-21.936
					c3.017-1.607,7.661-5.519,11.167-3.966c3.63,3.031,6.452,7.502,9.433,11.167c2.771,3.407,5.537,6.818,8.302,10.23
					c5.584,6.89,11.166,13.781,16.736,20.682c3.424,4.242,7.617,8.456,10.315,13.191c0.579,3.165-5.394,4.973-7.531,6.125
					c-3.582,1.931-7.14,3.915-10.723,5.849c-6.861,3.704-13.725,7.406-20.598,11.084c-3.752,2.008-8.226,3.668-11.648,6.153
					c-0.733,0.249-1.481,0.359-2.247,0.329c-3.525-0.826-6.869-7.018-9.056-9.698c-3.178-3.893-6.341-7.797-9.506-11.701
					c-6.293-7.762-12.587-15.524-18.851-23.309c-2.087-2.594-9.029-8.719-8.58-12.178
					C559.867,227.879,559.98,227.668,560.101,227.467z"/>
				
					<path style="clip-path:url(#SVGID_00000118370549742020266430000012211455424674598537_);fill:none;stroke:#000000;stroke-width:0.0032;stroke-miterlimit:10;" d="
					M559.285,228.48c0.491-0.954,1.442-1.536,2.422-1.928c9.735-5.627,19.806-10.763,29.717-16.091
					c4.579-2.462,9.177-4.893,13.751-7.359c2.005-1.081,4.734-3.293,7.085-2.765c2.752,0.618,5.058,4.907,6.757,6.993
					c8.628,10.596,17.216,21.225,25.81,31.849c2.149,2.656,4.297,5.313,6.443,7.972c1.997,2.475,5.052,5.208,6.421,8.073
					c2.025,4.241-8.83,7.976-11.913,9.64c-11.603,6.26-23.182,12.604-34.863,18.7c-1.157,0.604-2.346,1.196-3.462,1.87
					c-4.223,1.662-8.059-5.661-10.275-8.382c-3.207-3.939-6.404-7.887-9.602-11.834c-6.39-7.886-12.781-15.772-19.157-23.669
					C566.386,239.033,558.404,231.781,559.285,228.48z"/>
			</g>
			<g style="clip-path:url(#SVGID_00000139290435590361876900000012672988339175532180_);">
				<defs>
					
						<rect id="SVGID_00000096022869212604959800000009736250841851339943_" x="552.875" y="198.831" width="105.819" height="96.302"/>
				</defs>
				<clipPath id="SVGID_00000087381322030405254990000001631104603687316909_">
					<use xlink:href="#SVGID_00000096022869212604959800000009736250841851339943_"  style="overflow:visible;"/>
				</clipPath>
				<defs>
					<filter id="Adobe_OpacityMaskFilter" filterUnits="userSpaceOnUse" x="552.589" y="198.748" width="106.56" height="96.48">
						<feColorMatrix  type="matrix" values="1 0 0 0 0  0 1 0 0 0  0 0 1 0 0  0 0 0 1 0"/>
					</filter>
				</defs>
				
					<mask maskUnits="userSpaceOnUse" x="552.589" y="198.748" width="106.56" height="96.48" id="SVGID_00000047777500481937946910000017912330334833055934_">
					<g style="filter:url(#Adobe_OpacityMaskFilter);">
						<g>
							<g>
								<defs>
									
										<rect id="SVGID_00000065063019990264308380000011341003071538771589_" x="552.874" y="198.831" width="105.819" height="96.302"/>
								</defs>
								
									<clipPath id="SVGID_00000061436011707005814970000013301142305433371050_" style="clip-path:url(#SVGID_00000087381322030405254990000001631104603687316909_);">
									<use xlink:href="#SVGID_00000065063019990264308380000011341003071538771589_"  style="overflow:visible;"/>
								</clipPath>
								<g style="clip-path:url(#SVGID_00000061436011707005814970000013301142305433371050_);">
									
										<image style="overflow:visible;" width="222" height="201" xlink:href="985EA780.jpg"  transform="matrix(0.48 0 0 0.48 552.5894 198.7482)">
									</image>
								</g>
							</g>
						</g>
					</g>
				</mask>
				
					<g style="clip-path:url(#SVGID_00000087381322030405254990000001631104603687316909_);mask:url(#SVGID_00000047777500481937946910000017912330334833055934_);">
					<defs>
						
							<filter id="Adobe_OpacityMaskFilter_00000168799383563848906620000013593250163874619821_" filterUnits="userSpaceOnUse" x="552.589" y="198.748" width="106.56" height="96.48">
							<feColorMatrix  type="matrix" values="1 0 0 0 0  0 1 0 0 0  0 0 1 0 0  0 0 0 1 0"/>
						</filter>
					</defs>
					
						<mask maskUnits="userSpaceOnUse" x="552.589" y="198.748" width="106.56" height="96.48" id="SVGID_00000047777500481937946910000017912330334833055934_">
						<g style="filter:url(#Adobe_OpacityMaskFilter_00000168799383563848906620000013593250163874619821_);">
							<rect x="551.874" y="197.831" width="107.819" height="98.302"/>
							<g style="enable-background:new    ;">
								<g>
									<defs>
										
											<rect id="SVGID_00000176724706735493772500000007177554058785399691_" x="552.874" y="198.831" width="105.819" height="96.302"/>
									</defs>
									<clipPath id="SVGID_00000119837938910763970280000009330920845907532188_">
										<use xlink:href="#SVGID_00000176724706735493772500000007177554058785399691_"  style="overflow:visible;"/>
									</clipPath>
									<g style="clip-path:url(#SVGID_00000119837938910763970280000009330920845907532188_);">
										
											<image style="overflow:visible;" width="222" height="201" xlink:href="985EA79F.jpg"  transform="matrix(0.48 0 0 0.48 552.5894 198.7482)">
										</image>
									</g>
								</g>
							</g>
						</g>
					</mask>
					<g>
						<g>
							<defs>
								
									<rect id="SVGID_00000118363000455368519800000008543234214106446475_" x="552.874" y="198.831" width="105.819" height="96.302"/>
							</defs>
							<clipPath id="SVGID_00000166649844325825237560000015935034452718640545_">
								<use xlink:href="#SVGID_00000118363000455368519800000008543234214106446475_"  style="overflow:visible;"/>
							</clipPath>
							<defs>
								
									<filter id="Adobe_OpacityMaskFilter_00000029745623042181850200000011917106620531348927_" filterUnits="userSpaceOnUse" x="552.589" y="198.748" width="106.56" height="96.48">
									<feColorMatrix  type="matrix" values="1 0 0 0 0  0 1 0 0 0  0 0 1 0 0  0 0 0 1 0"/>
								</filter>
							</defs>
							
								<mask maskUnits="userSpaceOnUse" x="552.589" y="198.748" width="106.56" height="96.48" id="SVGID_00000047777500481937946910000017912330334833055934_">
								<g style="filter:url(#Adobe_OpacityMaskFilter_00000029745623042181850200000011917106620531348927_);">
									<g>
										<defs>
											
												<rect id="SVGID_00000058556746345359438020000003984153314615736449_" x="552.874" y="198.831" width="105.819" height="96.302"/>
										</defs>
										
											<clipPath id="SVGID_00000102502811498536712550000008695086451696008355_" style="clip-path:url(#SVGID_00000166649844325825237560000015935034452718640545_);">
											<use xlink:href="#SVGID_00000058556746345359438020000003984153314615736449_"  style="overflow:visible;"/>
										</clipPath>
										<g style="clip-path:url(#SVGID_00000102502811498536712550000008695086451696008355_);">
											
												<image style="overflow:visible;" width="222" height="201" xlink:href="985EA785.jpg"  transform="matrix(0.48 0 0 0.48 552.5894 198.7482)">
											</image>
										</g>
									</g>
								</g>
							</mask>
							<g style="clip-path:url(#SVGID_00000166649844325825237560000015935034452718640545_);">
								
									<image style="overflow:visible;" width="222" height="201" xlink:href="985EA786.jpg"  transform="matrix(0.48 0 0 0.48 552.5894 198.7482)">
								</image>
							</g>
						</g>
					</g>
				</g>
			</g>
			<g style="clip-path:url(#SVGID_00000139290435590361876900000012672988339175532180_);">
				<defs>
					
						<rect id="SVGID_00000011734153534360622590000007602971810963763901_" x="589.975" y="219.624" width="48.968" height="32.613"/>
				</defs>
				<clipPath id="SVGID_00000142889591893320966150000000522560229773222308_">
					<use xlink:href="#SVGID_00000011734153534360622590000007602971810963763901_"  style="overflow:visible;"/>
				</clipPath>
				
					<g transform="matrix(1 0 0 1 0 1.525879e-05)" style="clip-path:url(#SVGID_00000142889591893320966150000000522560229773222308_);">
					
						<image style="overflow:visible;" width="512" height="341" xlink:href="985EA785.png"  transform="matrix(0.0956 0 0 0.0956 589.975 219.6237)">
					</image>
				</g>
			</g>
		</g>
	</g>
</g>
</svg>
