<?xml version="1.0" encoding="UTF-8"?>
<svg id="Layer_1" xmlns="http://www.w3.org/2000/svg" version="1.1" viewBox="0 0 240 234">
  <!-- Generator: Adobe Illustrator 29.3.0, SVG Export Plug-In . SVG Version: 2.1.0 Build 146)  -->
  <defs>
    <style>
      .st0 {
        fill: #264de4;
      }

      .st1 {
        fill: #fff;
      }

      .st2 {
        fill: #ebebeb;
      }

      .st3 {
        fill: #2965f1;
      }
    </style>
  </defs>
  <path class="st0" d="M202.9,46l-15.1,169.2-67.9,18.8-67.7-18.8-15.1-169.2h165.8Z"/>
  <path class="st3" d="M174.9,204.4l12.9-144.6h-67.8v159.8l54.9-15.2Z"/>
  <path class="st2" d="M71.7,122.6l1.9,20.8h46.4v-20.8h-48.3ZM120,80.6h-52l1.9,20.8h50.2v-20.8ZM120,198.1v-21.6h0s-23.1-6.2-23.1-6.2l-1.5-16.6h-20.8l2.9,32.6,42.5,11.8h0Z"/>
  <path d="M76.1,0h25.1v10.5h-14.6v10.5h14.6v10.5h-25.1V0ZM106.3,0h25.1v9.1h-14.6v1.8h14.6v21h-25.1v-9.6h14.6v-1.8h-14.6V0ZM136.5,0h25.1v9.1h-14.6v1.8h14.6v21h-25.1v-9.6h14.6v-1.8h-14.6V0Z"/>
  <path class="st1" d="M145.5,143.3l-2.4,26.9-23.1,6.2v21.6l42.5-11.8.3-3.5,4.9-54.6.5-5.6,3.7-42h-52v20.8h29.2l-1.9,21.3h-27.4v20.8h25.6Z"/>
</svg>