<?xml version="1.0" encoding="UTF-8"?>
<svg id="Layer_1" xmlns="http://www.w3.org/2000/svg" version="1.1" viewBox="0 0 44 44">
  <!-- Generator: Adobe Illustrator 29.3.0, SVG Export Plug-In . SVG Version: 2.1.0 Build 146)  -->
  <defs>
    <style>
      .st0 {
        fill: none;
        stroke: #b3d335;
        stroke-miterlimit: 10;
        stroke-width: 2px;
      }
    </style>
  </defs>
  <path class="st0" d="M36.4,7v8.3l-5-8.7c-.1-.2-.5-.2-.6,0l-5,8.7c-2.4-2.5-5.8-4.1-9.6-4.1s-6.4,1.3-8.7,3.3v-7.5c0-3.2,2.5-5.7,5.7-5.7h17.5c3.2,0,5.7,2.5,5.7,5.7Z"/>
  <path class="st0" d="M36.4,23.5v13.5c0,3.2-2.5,5.7-5.7,5.7H13.1c-3.2,0-5.7-2.5-5.7-5.7v-2.8c2.3,2.1,5.4,3.3,8.7,3.3,7.3,0,13.3-6,13.3-13.3s0-.6,0-.9h7Z"/>
  <path class="st0" d="M29.4,24.3c0,7.3-6,13.3-13.3,13.3s-6.4-1.3-8.7-3.3c-2.8-2.4-4.5-6-4.5-10s1.7-7.6,4.5-10c2.3-2.1,5.4-3.3,8.7-3.3s7.2,1.6,9.6,4.1l-4.5,7.7c-.1.2,0,.5.2.5h7.8v.9h.1Z"/>
  <path class="st0" d="M40.6,23.5h-18.9c-.2,0-.5-.2-.2-.5l4.5-7.7,5-8.7c.1-.2.5-.2.6,0l5,8.7,4.5,7.7c.1.2,0,.5-.2.5h-.2Z"/>
</svg>