<?xml version="1.0" encoding="UTF-8"?>
<svg id="Layer_1" xmlns="http://www.w3.org/2000/svg" version="1.1" viewBox="0 0 240 234">
  <!-- Generator: Adobe Illustrator 29.3.0, SVG Export Plug-In . SVG Version: 2.1.0 Build 146)  -->
  <defs>
    <style>
      .st0 {
        fill: #fff;
      }

      .st1 {
        fill: #e44d26;
      }

      .st2 {
        fill: #f16529;
      }

      .st3 {
        fill: #ebebeb;
      }
    </style>
  </defs>
  <path class="st1" d="M52.2,215.7l-15.1-169.2h165.8l-15.1,169.2-67.9,18.8-67.7-18.8h0Z"/>
  <path class="st2" d="M120,220.1l54.8-15.2,12.9-144.6h-67.8v159.8h0Z"/>
  <path class="st3" d="M120,123.1h-27.5l-1.9-21.3h29.3v-20.7h-52.1l.5,5.6,5.1,57.2h46.4v-20.7h0ZM120,177h0l-23.1-6.2-1.5-16.5h-20.8l2.9,32.6,42.5,11.8h0v-21.6h0Z"/>
  <path class="st0" d="M52.6.5h10.6v10.4h9.6V.5h10.6v31.5h-10.6v-10.6h-9.6v10.6h-10.6V.5h0ZM97.2,10.9h-9.3V.5h29.1v10.5h-9.3v21.1h-10.6V10.9h0ZM121.6.5h11l6.8,11.1,6.8-11.1h11v31.5h-10.5v-15.6l-7.3,11.2h-.2l-7.3-11.2v15.6h-10.3V.5ZM162.4.5h10.6v21.1h14.9v10.4h-25.4V.5h0Z"/>
  <path class="st0" d="M119.9,123.1v20.7h25.5l-2.4,26.9-23.1,6.3v21.6l42.5-11.8.3-3.5,4.9-54.7.5-5.6h-48.3ZM119.9,81.1v20.7h50.1l.4-4.7,1-10.5.5-5.6h-52Z"/>
</svg>