<?xml version="1.0" encoding="UTF-8"?>
<svg id="Layer_1" xmlns="http://www.w3.org/2000/svg" version="1.1" viewBox="0 0 240 234">
  <!-- Generator: Adobe Illustrator 29.3.0, SVG Export Plug-In . SVG Version: 2.1.0 Build 146)  -->
  <defs>
    <style>
      .st0 {
        fill: #0060a9;
      }
    </style>
  </defs>
  <path class="st0" d="M234,165.7c-.8,2.2-31.5,80.1-132.7,61.8-1.6-.4-3.1-.8-4.7-1.3l-1.1-.3-4.7-1.5h-.5l-4.2-1.5-1-.4c-1.5-.6-2.9-1.2-4.4-1.8l-.7-.3-3.8-1.8-1-.5h-.5l-2.4-1.2-1.8-1c-1.1-.6-2.2-1.2-3.3-1.8l-1.2-.7-4.4-2.7-1.2-.8-2.8-1.9h-.3l-1.1-.7-2.8-2.1-1.4-1-2.6-2-1.3-1-3.1-2.6-.6-.5c-1.2-1-2.2-2-3.4-3.1l-1-1c-.9-.8-1.7-1.6-2.5-2.4l-1-1-3.1-3.3c-1.1-1.1-2.1-2.3-3.1-3.5l-.8-1-2.2-2.7-.9-1.1-2.4-3.2-.4-.6c-.9-1.2-1.8-2.5-2.6-3.7l-.8-1.2c-.6-.9-1.2-1.9-1.8-2.8l-.9-1.4-1.5-2.7-.8-1.5-.5-.8c-.3-.5-.5-1-.7-1.5-.4-.7-.8-1.5-1.2-2.3C-3.4,124.7-6,84.9,15.3,54.3l16.4-20.9c-18.7,36-10.2,80.1,13.2,112,.8,1.2,1.7,2.3,2.6,3.5l.8,1.1,2.2,2.8.8,1,3.5,3.7c1,1.1,2,2.2,3.1,3.3l1,1,2.5,2.4,1,.9,3.5,3.2.4.3c1.1,1,2.1,1.9,3.3,2.8l1.2,1,2.7,2.1,1.3,1,2.9,2.2,1,.7,2.9,2.1,1.2.8,4.4,2.7c.4.2.8.4,1.1.7l3.4,1.9,1.9,1,2.8,1.4,1.1.5,3.6,1.7.8.4c1.4.6,2.8,1.2,4.3,1.8l1.1.5,4,1.9h.7l4.7,1.5.7-.9c1.6.5,3.1,1,4.7,1.4,42.3,9.6,86.9.9,112-31.7Z"/>
  <path class="st0" d="M81.3,28.6c-15.5,22.2-14.6,51.7-2.6,75.1,2,3.9,4.2,7.7,6.8,11.3,2.2,3.6,4.8,7,7.8,10,1.1,1.2,2.2,2.4,3.5,3.6s.6.6.9.9l3.5,3.3c1.3,1.2,2.7,2.3,4.1,3.4l.9.7,4.3,3.2c.6.5,1.3.9,2,1.3l.9.6c1,.7,2.1,1.4,3.2,2h.5c.9.6,1.9,1.1,2.8,1.6l1,.6,2,1h.3l4.1,1.9.9.4,3.4,1.4,1.4.5,3.1,1.1,1.4.5c1.5.5,3.1,1,4.7,1.3,79.4,13.2,97.7-48,97.7-48-16.5,23.8-48.5,35.2-82.7,26.3-1.5-.4-3-.8-4.7-1.3l-1.3-.4-3.2-1.1-1.4-.6-3.4-1.4-.9-.4-4.2-1.9-2.1-1.1h-.8c-.9-.5-1.8-1-2.7-1.5l-.6-.5c-1.1-.7-2.2-1.3-3.2-2l-1-.7-2-1.2-4.2-3.1-1-.8c-15.3-11.7-26.7-27.9-32.7-46.2-6.3-19.1-4.2-40,5.7-57.6"/>
  <path class="st0" d="M136.8,9.3c-8.9,13.3-10.2,30.1-3.7,44.7,6.9,15.7,20,27.9,36.1,33.7l2,.7.9.3c.9.3,1.9.7,2.8.8,43.9,8.4,55.7-22.5,59-27.1-10.5,15-28,18.7-49.4,13.4-1.8-.5-3.5-1-5.2-1.6-2.1-.7-4.2-1.6-6.2-2.6-3.8-1.8-7.4-4-10.8-6.6C143,50.5,131,22.6,143.6,0"/>
</svg>