<?xml version="1.0" encoding="UTF-8"?>
<svg id="Layer_1" xmlns="http://www.w3.org/2000/svg" version="1.1" viewBox="0 0 240 234">
  <!-- Generator: Adobe Illustrator 29.3.0, SVG Export Plug-In . SVG Version: 2.1.0 Build 146)  -->
  <defs>
    <style>
      .st0 {
        fill: #ffc928;
      }
    </style>
  </defs>
  <path class="st0" d="M3,0v234h234V0H3ZM128.4,181.8c0,22.8-13.5,33.9-32.9,33.9s-27.8-9.1-33-20.1l17.9-10.8c3.5,6.1,6.1,11.3,13.6,11.3s11.4-2.8,11.4-13.8v-73.6h23v73.1ZM180.2,215.1c-20.4,0-33.6-9.2-40.1-21.9l17.9-10.4c4.7,7.7,10.8,12.8,21.7,12.8s14.4-4,14.4-10.3-5.4-10.2-15.5-14.6l-5.5-2.4c-15.9-6.7-26.4-15.2-26.4-33.1s12.6-28.5,32.2-28.5,24,4.3,31.3,17.1l-17.2,11c-3.8-6.8-7.8-9.4-14.1-9.4s-10.5,4.1-10.5,9.4,4.1,9.3,13.5,13.4l5.5,2.4c18.7,8,29.2,16.2,29.2,34.6,0,19.8-15.5,30.1-36.4,30.1"/>
</svg>