<?xml version="1.0" encoding="UTF-8"?>
<svg id="Layer_1" xmlns="http://www.w3.org/2000/svg" version="1.1" viewBox="0 0 240 234">
  <!-- Generator: Adobe Illustrator 29.3.0, SVG Export Plug-In . SVG Version: 2.1.0 Build 146)  -->
  <defs>
    <style>
      .st0 {
        fill: #d0469d;
      }
    </style>
  </defs>
  <path class="st0" d="M169.8,162.9c-.7-.6-.7-2.3,1.9-7.7,1-2.2,3.2-5.8,7.1-9.2.5,1.4.8,2.8.7,4,0,8.4-6,11.6-9.7,12.9h0ZM137.7,170.2c-1,.5-2,.9-2.4.6-.3-.2.4-.9.4-.9,0,0,5.2-5.6,7.3-8.2,1.2-1.5,2.6-3.2,4.1-5.2v.6c0,6.7-6.5,11.3-9.4,13.1h0ZM96.1,150.3c-2.4,5.9-7.5,20.9-10.5,20.1-2.6-.7-4.2-12.1-.5-23.3,1.9-5.7,5.9-12.4,8.2-15,3.8-4.2,7.9-5.6,9-3.9,1.2,2.3-4.6,18.6-6.1,22.2h0ZM45.7,184.6c-6.9,7.5-16.6,10.4-20.7,8-4.5-2.6-2.7-13.7,5.8-21.7,5.2-4.9,11.9-9.4,16.3-12.1,1-.6,2.5-1.5,4.3-2.6.3-.2.5-.3.5-.3.3-.2.7-.4,1.1-.7,3.1,11.4.1,21.5-7.1,29.4h0ZM206.6,130.4c-8.4,0-15.7,2.1-21.8,5.1-2.2-4.5-4.5-8.3-4.9-11.3-.4-3.4-.9-5.4-.4-9.5.5-4,2.9-9.8,2.9-10.2,0-.4-.5-2.5-5.3-2.5-4.8,0-9,.9-9.5,2.2-.5,1.3-1.4,4.2-2,7.2-.8,4.4-9.7,20-14.7,28.2-1.6-3.2-3-6-3.3-8.3-.4-3.4-.9-5.4-.4-9.5.5-4,2.9-9.8,2.9-10.2,0-.4-.5-2.5-5.3-2.5-4.8,0-9,.9-9.5,2.2-.5,1.3-1,4.3-2,7.2-1,2.9-12.7,29-15.8,35.8-1.5,3.5-2.9,6.2-3.9,8.1-1,1.9,0,.1-.1.3-.8,1.6-1.3,2.5-1.3,2.5h0c-.7,1.2-1.4,2.3-1.7,2.3s-.7-3.1,0-7.5c1.7-9,6-23.2,5.9-23.7,0-.2.8-2.7-2.7-4-3.4-1.3-4.6.8-4.9.8s-.5.8-.5.8c0,0,3.8-15.9-7.3-15.9s-16.5,7.5-21.2,14.4c-3,1.6-9.4,5.1-16.1,8.8-2.6,1.4-5.3,2.9-7.8,4.3l-.5-.6c-13.4-14.3-38.2-24.4-37.2-43.6.4-7,2.8-25.4,47.6-47.7,36.7-18.3,66.1-13.3,71.2-2.1,7.3,15.9-15.7,45.6-53.9,49.8-14.5,1.6-22.2-4-24.1-6.1-2-2.2-2.3-2.3-3-1.9-1.2.7-.5,2.6,0,3.8,1.1,3,5.8,8.2,13.8,10.8,7,2.3,24,3.6,44.7-4.4,23.1-9,41.2-33.8,35.9-54.6-5.4-21.1-40.5-28.1-73.6-16.3-19.7,7-41.1,18-56.5,32.4C1.9,82.2-1,97.1.2,103.3c4.3,22.1,34.7,36.5,46.9,47.1-.6.3-1.2.7-1.7.9-6.1,3-29.3,15.1-35.1,28-6.6,14.5,1,25,6.1,26.4,15.7,4.4,31.7-3.5,40.4-16.4,8.6-12.9,7.6-29.6,3.6-37.3v-.3c-.1,0,4.6-2.8,4.6-2.8,3.1-1.8,6.1-3.5,8.8-5-1.5,4.1-2.6,8.9-3.1,15.9-.7,8.3,2.7,18.9,7.2,23.2,2,1.8,4.3,1.9,5.8,1.9,5.2,0,7.5-4.3,10.1-9.4,3.2-6.2,6-13.5,6-13.5,0,0-3.5,19.5,6.1,19.5s7-4.5,8.6-6.9h0s0,0,.3-.4c.2-.3.4-.6.6-.9h0c1.4-2.5,4.5-8.1,9.2-17.3,6-11.9,11.9-26.8,11.9-26.8,0,0,.6,3.7,2.3,9.7,1,3.6,3.3,7.5,5,11.3-1.4,2-2.2,3.1-2.2,3.1h0c-1.1,1.5-2.4,3.1-3.7,4.7-4.8,5.7-10.5,12.2-11.3,14.1-.9,2.2-.7,3.8,1,5.2,1.3.9,3.5,1.1,5.9.9,4.3-.3,7.3-1.4,8.8-2,2.3-.8,5-2.1,7.6-4,4.7-3.5,7.5-8.4,7.3-15-.1-3.6-1.3-7.2-2.8-10.5.4-.6.8-1.2,1.3-1.9,7.4-10.8,13.1-22.7,13.1-22.7,0,0,.6,3.7,2.3,9.7.9,3,2.7,6.4,4.3,9.7-6.9,5.7-11.3,12.2-12.8,16.5-2.8,8-.6,11.6,3.5,12.4,1.8.4,4.5-.5,6.4-1.3,2.4-.8,5.4-2.2,8.1-4.2,4.7-3.5,9.2-8.3,9-14.8-.1-3-.9-6-2-8.8,5.9-2.4,13.5-3.8,23.3-2.7,20.9,2.4,25,15.5,24.2,20.9-.8,5.4-5.2,8.4-6.6,9.4-1.5.9-1.9,1.2-1.8,1.9.2,1,.8.9,2.1.8,1.7-.3,11-4.5,11.3-14.5.6-12.9-11.7-27-33.4-26.8"/>
</svg>