<?xml version="1.0" encoding="UTF-8"?>
<svg id="Layer_1" xmlns="http://www.w3.org/2000/svg" version="1.1" viewBox="0 0 44 44">
  <!-- Generator: Adobe Illustrator 29.3.0, SVG Export Plug-In . SVG Version: 2.1.0 Build 146)  -->
  <defs>
    <style>
      .st0 {
        fill: none;
        stroke: #b3d336;
        stroke-miterlimit: 10;
        stroke-width: 2px;
      }
    </style>
  </defs>
  <rect class="st0" x="6.2" y="1.2" width="31.7" height="41.6" rx="2.4" ry="2.4"/>
  <g>
    <path class="st0" d="M17.4,35.7c2.5,0,4.6-2.1,4.6-4.6v-4.6h-4.6c-2.5,0-4.6,2.1-4.6,4.6s2.1,4.6,4.6,4.6Z"/>
    <path class="st0" d="M12.9,22c0-2.5,2.1-4.6,4.6-4.6h4.6v9.1h-4.6c-2.5,0-4.6-2.1-4.6-4.6Z"/>
    <path class="st0" d="M12.9,12.9c0-2.5,2.1-4.6,4.6-4.6h4.6v9.1h-4.6c-2.5,0-4.6-2.1-4.6-4.6Z"/>
    <path class="st0" d="M22,8.3h4.6c2.5,0,4.6,2.1,4.6,4.6s-2.1,4.6-4.6,4.6h-4.6v-9.1Z"/>
    <path class="st0" d="M31.1,22c0,2.5-2.1,4.6-4.6,4.6s-4.6-2.1-4.6-4.6,2.1-4.6,4.6-4.6,4.6,2.1,4.6,4.6Z"/>
  </g>
</svg>